<svg width="113" height="76" viewBox="0 0 113 76" fill="none" xmlns="http://www.w3.org/2000/svg">
<path d="M0.13325 68.216C0.13325 66.3387 0.815917 64.76 2.18125 63.48C3.63192 62.1147 5.21058 61.432 6.91725 61.432C8.45325 61.432 9.90392 62.1147 11.2693 63.48C12.7199 64.76 13.4453 66.3387 13.4453 68.216C13.4453 70.264 12.7199 71.928 11.2693 73.208C9.90392 74.4027 8.45325 75 6.91725 75C5.21058 75 3.63192 74.4027 2.18125 73.208C0.815917 71.928 0.13325 70.264 0.13325 68.216Z" fill="#C4C9A5"/>
<path d="M43.4893 75.96C38.9453 75.96 35.0413 75.064 31.7773 73.272C28.5133 71.416 25.9853 68.92 24.1933 65.784C22.4653 62.584 21.6013 58.936 21.6013 54.84C21.6013 50.936 22.5933 47.384 24.5773 44.184C26.5613 40.984 29.2173 38.424 32.5453 36.504C35.8733 34.584 39.5853 33.624 43.6813 33.624C48.9293 33.624 53.2813 35.16 56.7373 38.232C60.1933 41.304 62.5293 45.528 63.7453 50.904L31.0093 62.424L28.8973 57.144L55.7773 47.352L53.8573 48.6C53.0893 46.488 51.8093 44.664 50.0173 43.128C48.2253 41.528 45.8893 40.728 43.0093 40.728C40.5773 40.728 38.4013 41.336 36.4813 42.552C34.5613 43.704 33.0573 45.304 31.9693 47.352C30.8813 49.4 30.3373 51.736 30.3373 54.36C30.3373 57.112 30.9133 59.544 32.0653 61.656C33.2173 63.704 34.7853 65.336 36.7693 66.552C38.8173 67.704 41.1213 68.28 43.6813 68.28C45.4093 68.28 47.0733 67.96 48.6733 67.32C50.3373 66.68 51.8733 65.848 53.2813 64.824L57.4093 71.448C55.4253 72.792 53.1853 73.88 50.6893 74.712C48.2573 75.544 45.8573 75.96 43.4893 75.96ZM74.9323 75V0.695995H83.6683V44.472L83.4763 42.84C84.8203 40.216 86.8683 38.04 89.6203 36.312C92.4363 34.584 95.7323 33.72 99.5083 33.72C103.284 33.72 106.356 34.84 108.724 37.08C111.156 39.256 112.404 42.104 112.468 45.624V75H103.444V48.792C103.38 46.616 102.74 44.856 101.524 43.512C100.372 42.104 98.5483 41.4 96.0523 41.4C93.7483 41.4 91.6683 42.072 89.8123 43.416C87.9563 44.696 86.4843 46.456 85.3963 48.696C84.3723 50.936 83.8603 53.496 83.8603 56.376V75H74.9323Z" fill="black"/>
</svg>
